<svg version="1" xmlns="http://www.w3.org/2000/svg" width="552" height="552" viewBox="0 0 414.000000 414.000000"><path d="M91 60.7c0 1-.5 4.9-1 8.8-4.7 36.2-12.6 135.4-16 201-.6 11-1.5 28-2 37.8-.6 9.8-1 20-1 22.8v4.9l18.8-.2 18.7-.3.7-11.5c.3-6.3 1.1-24.1 1.8-39.5 1.8-46.9 3.8-83.2 5.9-113.5 2.6-35.1 3.4-44.6 4.1-45.9.7-1.2 18.5 33.1 30.2 58.4 2.6 5.5 7.6 16.1 11.2 23.6 5.7 12.1 35 77.5 39 87.1l1.5 3.8h14.5c14.3 0 17.6-.4 17.6-2.1 0-.5 5.2-12.7 11.6-27.1 14.6-33 12.6-28.7 23.7-52.8 25.1-54.3 43.6-91.5 45-90.1 2.2 2.2 6.8 69.8 10.2 150.6.8 19.2 1.7 40.5 2.1 47.3l.7 12.2 18.6-.2 18.6-.3-.2-8.5c-.8-34.5-9.7-163.3-15.2-220.5-.5-5.5-1.7-17.9-2.6-27.5-.8-9.6-1.8-18.1-2-18.8-.3-.9-4.6-1.2-17-1.2H312l-3.4 5.2c-15 23.7-41.8 78-73.6 149.2-8.6 19.3-16.1 35.1-16.6 35.3-.5.1-7.6-14.9-15.8-33.5-30.1-67.9-59.5-127.5-75.3-152.5L125 59h-17c-15.5 0-17 .2-17 1.7z"/></svg>